<svg width="80" height="80" viewBox="0 0 80 80" fill="none" xmlns="http://www.w3.org/2000/svg">
<path d="M40.9759 12.0479C40.6768 12.0474 40.3814 12.1139 40.1114 12.2427C39.8414 12.3715 39.6038 12.5591 39.4159 12.7919L39.0599 13.0559C32.1599 10.9199 24.2879 12.4879 18.8079 17.7679C16.5131 19.9455 14.8059 22.6677 13.845 25.6818C12.8842 28.6959 12.7008 31.904 13.3119 35.0079C13.244 35.0679 13.1773 35.1292 13.1119 35.1919L9.99591 38.1919C9.39315 38.7637 8.91312 39.4523 8.58509 40.2156C8.25706 40.9789 8.08789 41.8011 8.08789 42.6319C8.08789 43.4627 8.25706 44.2849 8.58509 45.0482C8.91312 45.8116 9.39315 46.5001 9.99591 47.0719C11.5879 48.6079 13.7959 49.1839 15.8479 48.7999C16.0999 49.9559 16.6879 51.0559 17.6199 51.9519C18.8479 53.1359 20.4439 53.7479 22.0519 53.7919C22.0959 55.3399 22.7319 56.8759 23.9599 58.0599C25.1879 59.2439 26.7879 59.8599 28.3959 59.8999C28.4359 61.4479 29.0759 62.9879 30.3039 64.1719C31.4795 65.2876 33.0196 65.9396 34.6389 66.0073C36.2583 66.0749 37.8473 65.5537 39.1119 64.5399L40.8599 66.2199C43.4199 68.6879 47.5719 68.6879 50.1319 66.2199C51.3559 65.0439 51.9919 63.5159 52.0479 61.9719C53.6479 61.9239 55.2279 61.3119 56.4479 60.1359C57.6719 58.9559 58.3079 57.4279 58.3559 55.8839C59.9816 55.8269 61.5294 55.1733 62.7039 54.0479C63.6759 53.1159 64.2759 51.9599 64.5079 50.7519C65.5375 50.9325 66.5951 50.8687 67.5956 50.5658C68.596 50.2629 69.5114 49.7293 70.2679 49.0079C70.8713 48.4361 71.3519 47.7473 71.6803 46.9836C72.0087 46.2198 72.178 45.3972 72.178 44.5659C72.178 43.7346 72.0087 42.912 71.6803 42.1483C71.3519 41.3846 70.8713 40.6958 70.2679 40.1239L67.3879 37.3519L67.9759 35.1519C69.1653 30.6542 68.5631 25.8704 66.2959 21.8079C62.9519 15.7839 56.4639 12.0639 49.4479 12.0639H44.5279C44.3161 12.0534 44.104 12.0481 43.8919 12.0479H40.9759ZM50.7879 26.9119L60.4079 36.1799L60.4199 36.1879L67.3839 42.8999C67.6101 43.1144 67.7903 43.3728 67.9134 43.6592C68.0365 43.9456 68.1 44.2542 68.1 44.5659C68.1 44.8777 68.0365 45.1862 67.9134 45.4726C67.7903 45.759 67.6101 46.0174 67.3839 46.2319C66.9166 46.6744 66.2975 46.9211 65.6539 46.9211C65.0103 46.9211 64.3912 46.6744 63.9239 46.2319L58.6399 41.1439C58.2526 40.7723 57.7366 40.5648 57.1999 40.5648C56.6632 40.5648 56.1472 40.7723 55.7599 41.1439L55.7039 41.1919C55.5153 41.3706 55.3651 41.5858 55.2625 41.8244C55.1598 42.0631 55.1069 42.3201 55.1069 42.5799C55.1069 42.8397 55.1598 43.0968 55.2625 43.3354C55.3651 43.574 55.5153 43.7892 55.7039 43.9679L59.8239 47.9359C60.7839 48.8559 60.7839 50.3519 59.8239 51.2759C59.3991 51.6785 58.8473 51.9206 58.2634 51.9608C57.6795 52.0009 57.0998 51.8366 56.6239 51.4959C56.2267 51.2089 55.7415 51.0702 55.2526 51.1038C54.7637 51.1374 54.3021 51.3413 53.9479 51.6799C53.6018 52.0109 53.3927 52.4599 53.3624 52.9379C53.332 53.4159 53.4825 53.8878 53.7839 54.2599C54.143 54.7097 54.32 55.2779 54.28 55.852C54.24 56.4261 53.9859 56.9643 53.5679 57.3599C53.137 57.7685 52.5757 58.0119 51.9829 58.047C51.3902 58.0821 50.804 57.9068 50.3279 57.5519C49.9327 57.2554 49.4454 57.1081 48.9522 57.1359C48.4589 57.1637 47.9913 57.3649 47.6319 57.7039C47.2812 58.0344 47.0686 58.4853 47.0367 58.9661C47.0048 59.4469 47.156 59.922 47.4599 60.2959C47.8274 60.7517 48.0097 61.3292 47.9704 61.9134C47.9311 62.4975 47.6731 63.0455 47.2479 63.4479C46.7745 63.8972 46.1466 64.1477 45.4939 64.1477C44.8412 64.1477 44.2134 63.8972 43.7399 63.4479L42.0079 61.7799L42.6399 61.1719C43.2433 60.6001 43.7239 59.9113 44.0523 59.1476C44.3807 58.3838 44.55 57.5612 44.55 56.7299C44.55 55.8986 44.3807 55.076 44.0523 54.3123C43.7239 53.5486 43.2433 52.8598 42.6399 52.2879C41.4445 51.1422 39.8633 50.4858 38.2079 50.4479C38.1594 48.8282 37.4737 47.2931 36.2999 46.1759C35.1028 45.0307 33.5201 44.3757 31.8639 44.3399C31.8153 42.7202 31.1297 41.1851 29.9559 40.0679C29.1875 39.3365 28.2559 38.7986 27.2382 38.4988C26.2206 38.199 25.1462 38.1459 24.1039 38.3439C23.8402 37.1403 23.2232 36.0427 22.3319 35.1919C21.6486 34.5399 20.8344 34.0407 19.9434 33.7276C19.0523 33.4145 18.1049 33.2946 17.1639 33.3759C16.8488 31.032 17.0942 28.6467 17.8799 26.416C18.6657 24.1854 19.9693 22.1729 21.6839 20.5439C23.4165 18.8887 25.4938 17.6372 27.7669 16.8793C30.04 16.1214 32.4527 15.8757 34.8319 16.1599L29.0119 20.4399C28.2673 20.981 27.64 21.6674 27.168 22.4576C26.696 23.2479 26.389 24.1256 26.2656 25.0378C26.1423 25.9499 26.205 26.8776 26.4502 27.7649C26.6953 28.6521 27.1177 29.4805 27.6919 30.1999C28.8531 31.6559 30.531 32.6081 32.3764 32.8585C34.2219 33.1088 36.0928 32.638 37.5999 31.5439L43.9039 26.9159H50.7839L50.7879 26.9119ZM31.3799 23.6599L41.7479 16.0479H43.8919C44.088 16.0469 44.2841 16.0522 44.4799 16.0639H49.4479C55.0639 16.0639 60.1879 19.0439 62.7999 23.7519C64.5679 26.9359 65.0319 30.6359 64.1079 34.1279L64.0959 34.1679L53.0559 23.4999C52.6817 23.1246 52.1739 22.9131 51.6439 22.9119H43.2439C42.8194 22.9127 42.4061 23.0486 42.0639 23.2999L35.2319 28.3159C34.5608 28.7965 33.7315 29.0024 32.9136 28.8916C32.0956 28.7808 31.351 28.3617 30.8319 27.7199C30.59 27.4219 30.4117 27.0776 30.3079 26.7081C30.2041 26.3386 30.177 25.9518 30.2284 25.5715C30.2797 25.1911 30.4083 24.8253 30.6064 24.4966C30.8044 24.1678 31.0677 23.8831 31.3799 23.6599ZM33.1479 58.0999L33.1879 58.0599L36.2999 55.0599L36.3359 55.0279C36.8058 54.6007 37.4199 54.3669 38.055 54.3736C38.69 54.3803 39.2991 54.6269 39.7599 55.0639C39.9861 55.2784 40.1663 55.5368 40.2894 55.8232C40.4125 56.1096 40.476 56.4181 40.476 56.7299C40.476 57.0417 40.4125 57.3502 40.2894 57.6366C40.1663 57.923 39.9861 58.1814 39.7599 58.3959L36.6439 61.3959C36.1766 61.8384 35.5575 62.0851 34.9139 62.0851C34.2703 62.0851 33.6512 61.8384 33.1839 61.3959C32.9607 61.1846 32.7821 60.9306 32.6589 60.6489C32.5356 60.3673 32.4702 60.0638 32.4665 59.7564C32.4628 59.449 32.5208 59.144 32.6372 58.8594C32.7535 58.5749 32.9259 58.3166 33.1439 58.0999H33.1479ZM33.4559 52.2519L33.4159 52.2879L30.3039 55.2879L30.2639 55.3239C29.7937 55.7495 29.1802 55.9818 28.5461 55.9744C27.9119 55.967 27.304 55.7204 26.8439 55.2839C26.6202 55.0717 26.4416 54.8165 26.3186 54.5337C26.1957 54.2509 26.131 53.9462 26.1284 53.6379C26.1258 53.3295 26.1853 53.0238 26.3034 52.7389C26.4216 52.4541 26.5958 52.1959 26.8159 51.9799L26.8439 51.9519L29.9559 48.9519L29.9839 48.9239C30.4533 48.4933 31.0685 48.2567 31.7054 48.2619C32.3424 48.2671 32.9537 48.5137 33.4159 48.9519C33.6398 49.1633 33.8188 49.4176 33.9424 49.6996C34.066 49.9816 34.1317 50.2856 34.1354 50.5934C34.1391 50.9013 34.0809 51.2068 33.9642 51.4917C33.8474 51.7766 33.6746 52.0352 33.4559 52.2519ZM27.0759 46.1759L23.9599 49.1759L23.9319 49.2039C23.4626 49.6346 22.8473 49.8711 22.2104 49.8659C21.5734 49.8607 20.9622 49.6142 20.4999 49.1759C20.2737 48.9614 20.0935 48.703 19.9704 48.4166C19.8473 48.1302 19.7838 47.8217 19.7838 47.5099C19.7838 47.1981 19.8473 46.8896 19.9704 46.6032C20.0935 46.3168 20.2737 46.0584 20.4999 45.8439L23.6119 42.8439C24.0794 42.4002 24.6994 42.1529 25.3439 42.1529C25.9884 42.1529 26.6084 42.4002 27.0759 42.8439C27.3002 43.0562 27.4794 43.3116 27.6027 43.5948C27.726 43.878 27.7909 44.1831 27.7935 44.492C27.7961 44.8008 27.7364 45.107 27.6179 45.3922C27.4994 45.6774 27.3246 45.9358 27.1039 46.1519L27.0759 46.1759ZM19.4519 41.2999L16.3399 44.2999C15.8729 44.7445 15.2527 44.9925 14.6079 44.9925C13.9631 44.9925 13.343 44.7445 12.8759 44.2999C12.6491 44.0853 12.4684 43.8267 12.3449 43.5399C12.2214 43.2531 12.1577 42.9442 12.1577 42.6319C12.1577 42.3197 12.2214 42.0107 12.3449 41.7239C12.4684 41.4371 12.6491 41.1785 12.8759 40.9639L15.9919 37.9639C16.4592 37.5214 17.0783 37.2748 17.7219 37.2748C18.3655 37.2748 18.9846 37.5214 19.4519 37.9639C19.6788 38.1785 19.8595 38.4371 19.9829 38.7239C20.1064 39.0107 20.1701 39.3197 20.1701 39.6319C20.1701 39.9442 20.1064 40.2531 19.9829 40.5399C19.8595 40.8267 19.6788 41.0853 19.4519 41.2999Z" fill="#955AF5"/>
</svg>
