<svg width="82" height="71" viewBox="0 0 82 71" fill="none" xmlns="http://www.w3.org/2000/svg">
<path d="M31.9607 27.4458C31.9607 27.4458 29.4879 29.1473 28.196 28.3609C27.8886 28.1738 27.6211 27.928 27.4087 27.6375C27.1964 27.347 27.0433 27.0175 26.9582 26.6679C26.8732 26.3182 26.8579 25.9553 26.9131 25.5997C26.9683 25.2441 27.0931 24.9029 27.2802 24.5955C27.658 23.9748 28.267 23.5295 28.9732 23.3578C29.3228 23.2727 29.6858 23.2574 30.0414 23.3126C30.397 23.3679 30.7382 23.4926 31.0455 23.6797C32.3374 24.4674 31.9607 27.4458 31.9607 27.4458Z" fill="#955AF5"/>
<path d="M36.897 36.8943H45.3169C45.5856 36.8944 45.8484 36.9735 46.0725 37.1219C46.2966 37.2702 46.4722 37.4812 46.5772 37.7286L48.1637 41.4604L45.1771 43.0304C44.9819 43.1329 44.7648 43.1867 44.5443 43.1873C44.3237 43.1879 44.1063 43.1353 43.9105 43.0339C43.7147 42.9325 43.5463 42.7853 43.4195 42.6049C43.2928 42.4244 43.2114 42.2161 43.1824 41.9975" stroke="#955AF5" stroke-width="3.50019" stroke-miterlimit="10" stroke-linecap="round" stroke-linejoin="round"/>
<path d="M39.1583 42.0413C39.1219 42.2423 39.0411 42.4326 38.9217 42.5983C38.8023 42.764 38.6474 42.9009 38.4682 42.999C38.2891 43.0971 38.0903 43.1539 37.8863 43.1653C37.6824 43.1767 37.4785 43.1423 37.2896 43.0647L34.1208 41.7605L35.6141 37.7834C35.712 37.5223 35.8872 37.2973 36.1163 37.1384C36.3455 36.9796 36.6176 36.8944 36.8964 36.8943" stroke="#955AF5" stroke-width="3.50019" stroke-miterlimit="10" stroke-linecap="round" stroke-linejoin="round"/>
<path d="M33.2353 54.7323C33.2353 54.7323 32.2517 66.7785 37.3562 68.3458C40.9798 69.4596 44.4116 69.076 45.661 68.0033C46.8598 66.9758 49.2668 61.874 48.164 54.7323" stroke="#955AF5" stroke-width="3.50019" stroke-miterlimit="10" stroke-linecap="round" stroke-linejoin="round"/>
<path d="M52.1789 27.4458C52.1789 27.4458 54.6517 29.1473 55.9436 28.3609C56.5644 27.9831 57.0096 27.3741 57.1814 26.6679C57.3531 25.9618 57.2373 25.2163 56.8595 24.5955C56.4816 23.9748 55.8726 23.5295 55.1664 23.3578C54.4603 23.186 53.7148 23.3018 53.0941 23.6797C51.8008 24.4674 52.1789 27.4458 52.1789 27.4458Z" fill="#955AF5"/>
<path d="M26.644 44.8866C25.9933 49.8213 29.7045 52.764 32.513 54.2573C33.3126 54.6868 34.2199 54.8744 35.1244 54.7973C36.0288 54.7202 36.8912 54.3817 37.6066 53.823L41.1411 51.0501L44.6784 53.823C45.3936 54.3814 46.2557 54.72 47.1598 54.7973C48.0639 54.8747 48.971 54.6875 49.7706 54.2586C52.5791 52.764 56.2917 49.8199 55.641 44.8852" stroke="#955AF5" stroke-width="3.50019" stroke-miterlimit="10" stroke-linecap="round" stroke-linejoin="round"/>
<path d="M18.8692 25.0449C15.6963 32.114 18.1746 42.8889 19.0336 46.1097C19.2008 46.7358 19.1364 47.392 18.8596 47.977L16.1361 53.7227C15.2826 55.5242 12.8577 55.8503 11.5741 54.3255C7.19973 49.1388 -0.151583 38.7214 2.60071 31.4674C12.2769 5.97206 24.3409 6.61185 24.3409 6.61185C28.2385 3.96231 42.2931 -2.89307 58.3329 7.81058C58.3329 7.81058 70.1585 5.45696 78.7976 31.0139C81.2677 38.3255 74.0986 48.6415 69.8229 53.8172C68.5474 55.3612 66.102 55.0406 65.2444 53.2309L62.5387 47.5249C62.2603 46.943 62.1986 46.2809 62.3647 45.6576C63.2251 42.4368 65.702 31.6619 62.5291 24.5928" stroke="#955AF5" stroke-width="3.50019" stroke-miterlimit="10" stroke-linecap="round" stroke-linejoin="round"/>
<path d="M63.6403 49.8503C63.6403 49.8503 59.4249 59.0579 52.949 61.1814" stroke="#955AF5" stroke-width="3.50019" stroke-miterlimit="10" stroke-linecap="round" stroke-linejoin="round"/>
<path d="M18.1663 50.5433C18.1663 50.5433 22.3831 58.8755 28.859 60.999" stroke="#955AF5" stroke-width="3.50019" stroke-miterlimit="10" stroke-linecap="round" stroke-linejoin="round"/>
<path d="M41.1421 51.0498V46.8987" stroke="#955AF5" stroke-width="3.50019" stroke-miterlimit="10" stroke-linecap="round" stroke-linejoin="round"/>
</svg>
