<svg width="70" height="70" viewBox="0 0 70 70" fill="none" xmlns="http://www.w3.org/2000/svg">
<g clip-path="url(#clip0)">
<path d="M30.3668 13.9877V9.32513C30.3668 7.47026 29.6299 5.69136 28.3183 4.37977C27.0067 3.06817 25.2278 2.33133 23.373 2.33133C21.5181 2.33133 19.7392 3.06817 18.4276 4.37977C17.116 5.69136 16.3792 7.47026 16.3792 9.32513V13.9877C16.3792 15.8425 17.116 17.6214 18.4276 18.933C19.7392 20.2446 21.5181 20.9815 23.373 20.9815C25.2278 20.9815 27.0067 20.2446 28.3183 18.933C29.6299 17.6214 30.3668 15.8425 30.3668 13.9877Z" stroke="#955AF5" stroke-width="4.47604"/>
<path d="M53.6795 13.9877V9.32513C53.6795 7.47026 52.9427 5.69136 51.6311 4.37977C50.3195 3.06817 48.5406 2.33133 46.6857 2.33133C44.8308 2.33133 43.0519 3.06817 41.7403 4.37977C40.4287 5.69136 39.6919 7.47026 39.6919 9.32513V13.9877C39.6919 15.8425 40.4287 17.6214 41.7403 18.933C43.0519 20.2446 44.8308 20.9815 46.6857 20.9815C48.5406 20.9815 50.3195 20.2446 51.6311 18.933C52.9427 17.6214 53.6795 15.8425 53.6795 13.9877Z" stroke="#955AF5" stroke-width="4.47604"/>
<path d="M67.6671 34.9691V32.6378C67.6671 30.7829 66.9302 29.004 65.6186 27.6924C64.307 26.3808 62.5281 25.644 60.6733 25.644C58.8184 25.644 57.0395 26.3808 55.7279 27.6924C54.4163 29.004 53.6794 30.7829 53.6794 32.6378V34.9691C53.6794 36.8239 54.4163 38.6028 55.7279 39.9144C57.0395 41.226 58.8184 41.9629 60.6733 41.9629C62.5281 41.9629 64.307 41.226 65.6186 39.9144C66.9302 38.6028 67.6671 36.8239 67.6671 34.9691V34.9691Z" stroke="#955AF5" stroke-width="4.47604"/>
<path d="M16.3792 34.9691V32.6378C16.3792 31.7193 16.1983 30.8099 15.8468 29.9614C15.4954 29.1128 14.9802 28.3419 14.3308 27.6924C13.6813 27.043 12.9103 26.5278 12.0618 26.1764C11.2133 25.8249 10.3038 25.644 9.38541 25.644C8.46697 25.644 7.55752 25.8249 6.70899 26.1764C5.86047 26.5278 5.08947 27.043 4.44004 27.6924C3.7906 28.3419 3.27544 29.1128 2.92397 29.9614C2.5725 30.8099 2.3916 31.7193 2.3916 32.6378V34.9691C2.3916 35.8875 2.5725 36.7969 2.92397 37.6455C3.27544 38.494 3.7906 39.265 4.44004 39.9144C5.08947 40.5639 5.86047 41.079 6.70899 41.4305C7.55752 41.782 8.46697 41.9629 9.38541 41.9629C10.3038 41.9629 11.2133 41.782 12.0618 41.4305C12.9103 41.079 13.6813 40.5639 14.3308 39.9144C14.9802 39.265 15.4954 38.494 15.8468 37.6455C16.1983 36.7969 16.3792 35.8875 16.3792 34.9691V34.9691Z" stroke="#955AF5" stroke-width="4.47604"/>
<path d="M13.3719 54.2721L26.9771 37.7527C27.9556 36.5642 29.1851 35.607 30.5773 34.9499C31.9695 34.2928 33.4899 33.952 35.0293 33.952C36.5688 33.952 38.0892 34.2928 39.4814 34.9499C40.8736 35.607 42.103 36.5642 43.0815 37.7527L56.6868 54.2721C61.0649 59.5874 57.2836 67.6069 50.3924 67.6069C49.4879 67.6069 48.5973 67.3971 47.786 66.9915L46.1075 66.1522C42.667 64.4324 38.8734 63.537 35.027 63.537C31.1806 63.537 27.387 64.4324 23.9465 66.1522L22.268 66.9915C21.4603 67.3958 20.5695 67.6065 19.6663 67.6069C12.775 67.6069 8.99373 59.5874 13.3719 54.2721V54.2721Z" stroke="#955AF5" stroke-width="4.47604"/>
</g>
<defs>
<clipPath id="clip0">
<rect width="69.9381" height="69.9381" fill="white" transform="translate(0.0603027)"/>
</clipPath>
</defs>
</svg>
